<mxfile host="app.diagrams.net" modified="2023-10-26T18:55:52.620Z" agent="Mozilla/5.0 (Windows NT 10.0; Win64; x64) AppleWebKit/537.36 (KHTML, like Gecko) Chrome/118.0.0.0 Safari/537.36" etag="OEycagMXBeIAWsPHTfVr" version="22.0.8" type="github">
  <diagram name="PÃ¡gina-1" id="d5wWJGe6JOv6zLYkl7I3">
    <mxGraphModel dx="794" dy="464" grid="1" gridSize="10" guides="1" tooltips="1" connect="1" arrows="1" fold="1" page="1" pageScale="1" pageWidth="583" pageHeight="827" math="0" shadow="0">
      <root>
        <mxCell id="0" />
        <mxCell id="1" parent="0" />
        <mxCell id="ITnnjZ9r51eWEiYGmTZP-3" value="" style="edgeStyle=orthogonalEdgeStyle;rounded=0;orthogonalLoop=1;jettySize=auto;html=1;" edge="1" parent="1" source="ITnnjZ9r51eWEiYGmTZP-1">
          <mxGeometry relative="1" as="geometry">
            <mxPoint x="420" y="140" as="targetPoint" />
          </mxGeometry>
        </mxCell>
        <mxCell id="ITnnjZ9r51eWEiYGmTZP-1" value="inicio" style="ellipse;whiteSpace=wrap;" vertex="1" parent="1">
          <mxGeometry x="354" y="20" width="120" height="80" as="geometry" />
        </mxCell>
        <mxCell id="ITnnjZ9r51eWEiYGmTZP-5" value="" style="edgeStyle=orthogonalEdgeStyle;rounded=0;orthogonalLoop=1;jettySize=auto;html=1;" edge="1" parent="1" source="ITnnjZ9r51eWEiYGmTZP-2" target="ITnnjZ9r51eWEiYGmTZP-4">
          <mxGeometry relative="1" as="geometry" />
        </mxCell>
        <mxCell id="ITnnjZ9r51eWEiYGmTZP-2" value="saldo" style="shape=hexagon;perimeter=hexagonPerimeter2;whiteSpace=wrap;html=1;fixedSize=1;" vertex="1" parent="1">
          <mxGeometry x="360" y="140" width="120" height="80" as="geometry" />
        </mxCell>
        <mxCell id="ITnnjZ9r51eWEiYGmTZP-7" value="" style="edgeStyle=orthogonalEdgeStyle;rounded=0;orthogonalLoop=1;jettySize=auto;html=1;exitX=0.5;exitY=1;exitDx=0;exitDy=0;" edge="1" parent="1" source="ITnnjZ9r51eWEiYGmTZP-4">
          <mxGeometry relative="1" as="geometry">
            <mxPoint x="614" y="200" as="sourcePoint" />
            <mxPoint x="480" y="305" as="targetPoint" />
            <Array as="points">
              <mxPoint x="614" y="305" />
            </Array>
          </mxGeometry>
        </mxCell>
        <mxCell id="ITnnjZ9r51eWEiYGmTZP-4" value="saldo inicial" style="shape=step;perimeter=stepPerimeter;whiteSpace=wrap;html=1;fixedSize=1;" vertex="1" parent="1">
          <mxGeometry x="554" y="180" width="120" height="80" as="geometry" />
        </mxCell>
        <mxCell id="ITnnjZ9r51eWEiYGmTZP-10" value="" style="edgeStyle=orthogonalEdgeStyle;rounded=0;orthogonalLoop=1;jettySize=auto;html=1;" edge="1" parent="1" source="ITnnjZ9r51eWEiYGmTZP-6" target="ITnnjZ9r51eWEiYGmTZP-9">
          <mxGeometry relative="1" as="geometry" />
        </mxCell>
        <mxCell id="ITnnjZ9r51eWEiYGmTZP-6" value="encerrar = &#39;n&#39;" style="whiteSpace=wrap;html=1;" vertex="1" parent="1">
          <mxGeometry x="360" y="270" width="120" height="60" as="geometry" />
        </mxCell>
        <mxCell id="ITnnjZ9r51eWEiYGmTZP-12" value="" style="edgeStyle=orthogonalEdgeStyle;rounded=0;orthogonalLoop=1;jettySize=auto;html=1;" edge="1" parent="1" source="ITnnjZ9r51eWEiYGmTZP-9" target="ITnnjZ9r51eWEiYGmTZP-11">
          <mxGeometry relative="1" as="geometry" />
        </mxCell>
        <mxCell id="ITnnjZ9r51eWEiYGmTZP-9" value="encerrar = &#39;n&#39;" style="rhombus;whiteSpace=wrap;html=1;" vertex="1" parent="1">
          <mxGeometry x="367" y="370" width="106" height="80" as="geometry" />
        </mxCell>
        <mxCell id="ITnnjZ9r51eWEiYGmTZP-14" value="" style="edgeStyle=orthogonalEdgeStyle;rounded=0;orthogonalLoop=1;jettySize=auto;html=1;" edge="1" parent="1" source="ITnnjZ9r51eWEiYGmTZP-11" target="ITnnjZ9r51eWEiYGmTZP-13">
          <mxGeometry relative="1" as="geometry" />
        </mxCell>
        <mxCell id="ITnnjZ9r51eWEiYGmTZP-11" value="tipo de entrada" style="shape=hexagon;perimeter=hexagonPerimeter2;whiteSpace=wrap;html=1;fixedSize=1;" vertex="1" parent="1">
          <mxGeometry x="354" y="490" width="120" height="80" as="geometry" />
        </mxCell>
        <mxCell id="ITnnjZ9r51eWEiYGmTZP-16" value="" style="edgeStyle=orthogonalEdgeStyle;rounded=0;orthogonalLoop=1;jettySize=auto;html=1;" edge="1" parent="1" source="ITnnjZ9r51eWEiYGmTZP-13" target="ITnnjZ9r51eWEiYGmTZP-15">
          <mxGeometry relative="1" as="geometry" />
        </mxCell>
        <mxCell id="ITnnjZ9r51eWEiYGmTZP-13" value="quantidade" style="shape=hexagon;perimeter=hexagonPerimeter2;whiteSpace=wrap;html=1;fixedSize=1;" vertex="1" parent="1">
          <mxGeometry x="354" y="620" width="120" height="80" as="geometry" />
        </mxCell>
        <mxCell id="ITnnjZ9r51eWEiYGmTZP-18" value="" style="edgeStyle=orthogonalEdgeStyle;rounded=0;orthogonalLoop=1;jettySize=auto;html=1;" edge="1" parent="1" source="ITnnjZ9r51eWEiYGmTZP-15" target="ITnnjZ9r51eWEiYGmTZP-17">
          <mxGeometry relative="1" as="geometry" />
        </mxCell>
        <mxCell id="ITnnjZ9r51eWEiYGmTZP-26" value="" style="edgeStyle=orthogonalEdgeStyle;rounded=0;orthogonalLoop=1;jettySize=auto;html=1;" edge="1" parent="1" source="ITnnjZ9r51eWEiYGmTZP-15" target="ITnnjZ9r51eWEiYGmTZP-25">
          <mxGeometry relative="1" as="geometry" />
        </mxCell>
        <mxCell id="ITnnjZ9r51eWEiYGmTZP-15" value="Entrada 1" style="rhombus;whiteSpace=wrap;html=1;" vertex="1" parent="1">
          <mxGeometry x="374" y="750" width="80" height="80" as="geometry" />
        </mxCell>
        <mxCell id="ITnnjZ9r51eWEiYGmTZP-20" value="" style="edgeStyle=orthogonalEdgeStyle;rounded=0;orthogonalLoop=1;jettySize=auto;html=1;" edge="1" parent="1" source="ITnnjZ9r51eWEiYGmTZP-17" target="ITnnjZ9r51eWEiYGmTZP-19">
          <mxGeometry relative="1" as="geometry" />
        </mxCell>
        <mxCell id="ITnnjZ9r51eWEiYGmTZP-17" value="saldo = saldo + quantidade" style="whiteSpace=wrap;html=1;" vertex="1" parent="1">
          <mxGeometry x="494" y="760" width="120" height="60" as="geometry" />
        </mxCell>
        <mxCell id="ITnnjZ9r51eWEiYGmTZP-19" value="&quot;Entrada:&quot; + quantidade" style="shape=step;perimeter=stepPerimeter;whiteSpace=wrap;html=1;fixedSize=1;" vertex="1" parent="1">
          <mxGeometry x="640" y="750" width="120" height="80" as="geometry" />
        </mxCell>
        <mxCell id="ITnnjZ9r51eWEiYGmTZP-21" value="&lt;font size=&quot;3&quot;&gt;v&lt;/font&gt;" style="text;strokeColor=none;align=center;fillColor=none;html=1;verticalAlign=middle;whiteSpace=wrap;rounded=0;" vertex="1" parent="1">
          <mxGeometry x="430" y="750" width="60" height="30" as="geometry" />
        </mxCell>
        <mxCell id="ITnnjZ9r51eWEiYGmTZP-23" value="&lt;font size=&quot;3&quot;&gt;v&lt;/font&gt;" style="text;strokeColor=none;align=center;fillColor=none;html=1;verticalAlign=middle;whiteSpace=wrap;rounded=0;" vertex="1" parent="1">
          <mxGeometry x="354" y="340" width="60" height="30" as="geometry" />
        </mxCell>
        <mxCell id="ITnnjZ9r51eWEiYGmTZP-24" value="" style="endArrow=classic;html=1;rounded=0;exitX=0.5;exitY=1;exitDx=0;exitDy=0;" edge="1" parent="1" source="ITnnjZ9r51eWEiYGmTZP-19">
          <mxGeometry width="50" height="50" relative="1" as="geometry">
            <mxPoint x="520" y="880" as="sourcePoint" />
            <mxPoint x="420" y="880" as="targetPoint" />
            <Array as="points">
              <mxPoint x="700" y="880" />
            </Array>
          </mxGeometry>
        </mxCell>
        <mxCell id="ITnnjZ9r51eWEiYGmTZP-29" value="" style="edgeStyle=orthogonalEdgeStyle;rounded=0;orthogonalLoop=1;jettySize=auto;html=1;" edge="1" parent="1" source="ITnnjZ9r51eWEiYGmTZP-25">
          <mxGeometry relative="1" as="geometry">
            <mxPoint x="494" y="950" as="targetPoint" />
          </mxGeometry>
        </mxCell>
        <mxCell id="ITnnjZ9r51eWEiYGmTZP-25" value="Entrada 2" style="rhombus;whiteSpace=wrap;html=1;" vertex="1" parent="1">
          <mxGeometry x="374" y="910" width="80" height="80" as="geometry" />
        </mxCell>
        <mxCell id="ITnnjZ9r51eWEiYGmTZP-27" value="F" style="text;strokeColor=none;align=center;fillColor=none;html=1;verticalAlign=middle;whiteSpace=wrap;rounded=0;" vertex="1" parent="1">
          <mxGeometry x="354" y="860" width="60" height="20" as="geometry" />
        </mxCell>
        <mxCell id="ITnnjZ9r51eWEiYGmTZP-32" value="" style="edgeStyle=orthogonalEdgeStyle;rounded=0;orthogonalLoop=1;jettySize=auto;html=1;" edge="1" parent="1" source="ITnnjZ9r51eWEiYGmTZP-30" target="ITnnjZ9r51eWEiYGmTZP-31">
          <mxGeometry relative="1" as="geometry" />
        </mxCell>
        <mxCell id="ITnnjZ9r51eWEiYGmTZP-34" value="" style="edgeStyle=orthogonalEdgeStyle;rounded=0;orthogonalLoop=1;jettySize=auto;html=1;" edge="1" parent="1" source="ITnnjZ9r51eWEiYGmTZP-30" target="ITnnjZ9r51eWEiYGmTZP-33">
          <mxGeometry relative="1" as="geometry" />
        </mxCell>
        <mxCell id="ITnnjZ9r51eWEiYGmTZP-30" value="saldo &amp;gt;= quantidade" style="rhombus;whiteSpace=wrap;html=1;" vertex="1" parent="1">
          <mxGeometry x="494" y="905" width="96" height="90" as="geometry" />
        </mxCell>
        <mxCell id="ITnnjZ9r51eWEiYGmTZP-36" value="" style="edgeStyle=orthogonalEdgeStyle;rounded=0;orthogonalLoop=1;jettySize=auto;html=1;" edge="1" parent="1" source="ITnnjZ9r51eWEiYGmTZP-31" target="ITnnjZ9r51eWEiYGmTZP-35">
          <mxGeometry relative="1" as="geometry" />
        </mxCell>
        <mxCell id="ITnnjZ9r51eWEiYGmTZP-31" value="saldo = saldo - quantidade" style="whiteSpace=wrap;html=1;" vertex="1" parent="1">
          <mxGeometry x="640" y="920" width="120" height="60" as="geometry" />
        </mxCell>
        <mxCell id="ITnnjZ9r51eWEiYGmTZP-33" value="saldo &lt;br&gt;insuficiente" style="shape=step;perimeter=stepPerimeter;whiteSpace=wrap;html=1;fixedSize=1;" vertex="1" parent="1">
          <mxGeometry x="482" y="1040" width="120" height="80" as="geometry" />
        </mxCell>
        <mxCell id="ITnnjZ9r51eWEiYGmTZP-35" value="&quot;saida:&quot; +&amp;nbsp;&lt;br&gt;quantidade" style="shape=step;perimeter=stepPerimeter;whiteSpace=wrap;html=1;fixedSize=1;" vertex="1" parent="1">
          <mxGeometry x="640" y="1040" width="120" height="80" as="geometry" />
        </mxCell>
        <mxCell id="ITnnjZ9r51eWEiYGmTZP-48" value="" style="edgeStyle=orthogonalEdgeStyle;rounded=0;orthogonalLoop=1;jettySize=auto;html=1;" edge="1" parent="1" source="ITnnjZ9r51eWEiYGmTZP-37" target="ITnnjZ9r51eWEiYGmTZP-47">
          <mxGeometry relative="1" as="geometry" />
        </mxCell>
        <mxCell id="ITnnjZ9r51eWEiYGmTZP-37" value="saldo" style="shape=step;perimeter=stepPerimeter;whiteSpace=wrap;html=1;fixedSize=1;" vertex="1" parent="1">
          <mxGeometry x="354" y="1201" width="120" height="80" as="geometry" />
        </mxCell>
        <mxCell id="ITnnjZ9r51eWEiYGmTZP-40" value="" style="edgeStyle=orthogonalEdgeStyle;rounded=0;orthogonalLoop=1;jettySize=auto;html=1;" edge="1" parent="1" source="ITnnjZ9r51eWEiYGmTZP-25">
          <mxGeometry relative="1" as="geometry">
            <mxPoint x="414" y="990" as="sourcePoint" />
            <mxPoint x="414" y="1190" as="targetPoint" />
          </mxGeometry>
        </mxCell>
        <mxCell id="ITnnjZ9r51eWEiYGmTZP-41" value="F" style="text;strokeColor=none;align=center;fillColor=none;html=1;verticalAlign=middle;whiteSpace=wrap;rounded=0;" vertex="1" parent="1">
          <mxGeometry x="354" y="1130" width="60" height="30" as="geometry" />
        </mxCell>
        <mxCell id="ITnnjZ9r51eWEiYGmTZP-42" value="" style="endArrow=classic;html=1;rounded=0;exitX=0.406;exitY=0.983;exitDx=0;exitDy=0;exitPerimeter=0;" edge="1" parent="1" source="ITnnjZ9r51eWEiYGmTZP-33">
          <mxGeometry width="50" height="50" relative="1" as="geometry">
            <mxPoint x="530" y="1130" as="sourcePoint" />
            <mxPoint x="420" y="1160" as="targetPoint" />
            <Array as="points">
              <mxPoint x="531" y="1160" />
            </Array>
          </mxGeometry>
        </mxCell>
        <mxCell id="ITnnjZ9r51eWEiYGmTZP-43" value="" style="endArrow=classic;html=1;rounded=0;exitX=0.394;exitY=1.033;exitDx=0;exitDy=0;exitPerimeter=0;" edge="1" parent="1" source="ITnnjZ9r51eWEiYGmTZP-35">
          <mxGeometry width="50" height="50" relative="1" as="geometry">
            <mxPoint x="530" y="1040" as="sourcePoint" />
            <mxPoint x="420" y="1170" as="targetPoint" />
            <Array as="points">
              <mxPoint x="687" y="1170" />
            </Array>
          </mxGeometry>
        </mxCell>
        <mxCell id="ITnnjZ9r51eWEiYGmTZP-44" value="V" style="text;strokeColor=none;align=center;fillColor=none;html=1;verticalAlign=middle;whiteSpace=wrap;rounded=0;" vertex="1" parent="1">
          <mxGeometry x="440" y="910" width="60" height="30" as="geometry" />
        </mxCell>
        <mxCell id="ITnnjZ9r51eWEiYGmTZP-45" value="V" style="text;strokeColor=none;align=center;fillColor=none;html=1;verticalAlign=middle;whiteSpace=wrap;rounded=0;" vertex="1" parent="1">
          <mxGeometry x="570" y="910" width="60" height="30" as="geometry" />
        </mxCell>
        <mxCell id="ITnnjZ9r51eWEiYGmTZP-46" value="F" style="text;strokeColor=none;align=center;fillColor=none;html=1;verticalAlign=middle;whiteSpace=wrap;rounded=0;" vertex="1" parent="1">
          <mxGeometry x="480" y="1000" width="60" height="30" as="geometry" />
        </mxCell>
        <mxCell id="ITnnjZ9r51eWEiYGmTZP-47" value="Encerrar s/n?" style="shape=hexagon;perimeter=hexagonPerimeter2;whiteSpace=wrap;html=1;fixedSize=1;" vertex="1" parent="1">
          <mxGeometry x="354" y="1361" width="120" height="80" as="geometry" />
        </mxCell>
        <mxCell id="ITnnjZ9r51eWEiYGmTZP-57" value="" style="edgeStyle=orthogonalEdgeStyle;rounded=0;orthogonalLoop=1;jettySize=auto;html=1;" edge="1" parent="1" source="ITnnjZ9r51eWEiYGmTZP-49" target="ITnnjZ9r51eWEiYGmTZP-56">
          <mxGeometry relative="1" as="geometry" />
        </mxCell>
        <mxCell id="ITnnjZ9r51eWEiYGmTZP-49" value="sistema&lt;br&gt;encerrado" style="shape=step;perimeter=stepPerimeter;whiteSpace=wrap;html=1;fixedSize=1;" vertex="1" parent="1">
          <mxGeometry x="360" y="1480" width="120" height="80" as="geometry" />
        </mxCell>
        <mxCell id="ITnnjZ9r51eWEiYGmTZP-50" value="" style="endArrow=classic;html=1;rounded=0;exitX=0;exitY=0.5;exitDx=0;exitDy=0;" edge="1" parent="1" source="ITnnjZ9r51eWEiYGmTZP-47">
          <mxGeometry width="50" height="50" relative="1" as="geometry">
            <mxPoint x="354" y="1151" as="sourcePoint" />
            <mxPoint x="360" y="410" as="targetPoint" />
            <Array as="points">
              <mxPoint x="240" y="1400" />
              <mxPoint x="240" y="550" />
              <mxPoint x="240" y="410" />
            </Array>
          </mxGeometry>
        </mxCell>
        <mxCell id="ITnnjZ9r51eWEiYGmTZP-51" value="" style="endArrow=classic;html=1;rounded=0;exitX=1;exitY=0.5;exitDx=0;exitDy=0;" edge="1" parent="1" source="ITnnjZ9r51eWEiYGmTZP-9">
          <mxGeometry width="50" height="50" relative="1" as="geometry">
            <mxPoint x="480" y="410" as="sourcePoint" />
            <mxPoint x="490" y="1520" as="targetPoint" />
            <Array as="points">
              <mxPoint x="800" y="410" />
              <mxPoint x="800" y="1520" />
            </Array>
          </mxGeometry>
        </mxCell>
        <mxCell id="ITnnjZ9r51eWEiYGmTZP-52" value="F" style="text;strokeColor=none;align=center;fillColor=none;html=1;verticalAlign=middle;whiteSpace=wrap;rounded=0;" vertex="1" parent="1">
          <mxGeometry x="480" y="370" width="60" height="30" as="geometry" />
        </mxCell>
        <mxCell id="ITnnjZ9r51eWEiYGmTZP-53" value="V" style="text;strokeColor=none;align=center;fillColor=none;html=1;verticalAlign=middle;whiteSpace=wrap;rounded=0;" vertex="1" parent="1">
          <mxGeometry x="340" y="440" width="60" height="30" as="geometry" />
        </mxCell>
        <mxCell id="ITnnjZ9r51eWEiYGmTZP-56" value="Fim" style="ellipse;whiteSpace=wrap;html=1;" vertex="1" parent="1">
          <mxGeometry x="350" y="1600" width="120" height="80" as="geometry" />
        </mxCell>
      </root>
    </mxGraphModel>
  </diagram>
</mxfile>
